<?xml version="1.0" standalone="no"?>
<!DOCTYPE svg PUBLIC "-//W3C//DTD SVG 20010904//EN"
 "http://www.w3.org/TR/2001/REC-SVG-20010904/DTD/svg10.dtd">
<svg version="1.0" xmlns="http://www.w3.org/2000/svg"
 width="200.000000pt" height="200.000000pt" viewBox="0 0 200.000000 200.000000"
 preserveAspectRatio="xMidYMid meet">
<metadata>
Created by potrace 1.11, written by Peter Selinger 2001-2013
</metadata>
<g transform="translate(0.000000,200.000000) scale(0.100000,-0.100000)"
fill="#000000" stroke="none">
<path d="M852 1855 c-34 -6 -64 -10 -66 -7 -3 2 -4 -10 -4 -27 1 -18 -7 -41
-19 -54 l-20 -22 74 -200 c140 -377 149 -400 158 -398 6 2 11 59 13 127 2 117
1 126 -18 136 -38 20 -16 90 29 90 21 0 51 -30 51 -52 0 -8 -9 -23 -20 -33
-18 -16 -20 -31 -20 -140 0 -96 3 -124 14 -128 9 -4 18 4 24 21 6 15 56 150
111 301 l100 274 -19 26 c-10 15 -20 37 -21 51 -4 22 -11 26 -74 36 -89 15
-212 15 -293 -1z"/>
<path d="M580 1761 c-86 -49 -138 -91 -214 -172 -74 -80 -75 -83 -59 -102 10
-10 18 -33 18 -50 0 -30 8 -36 278 -190 172 -99 281 -157 287 -151 6 6 1 19
-13 34 -12 14 -42 50 -67 80 -69 84 -78 93 -89 86 -6 -4 -19 -2 -30 4 -46 24
-32 90 19 90 32 0 55 -29 47 -60 -6 -25 148 -211 168 -204 12 5 11 14 -5 57
-46 124 -200 550 -200 552 0 1 -13 5 -29 8 -16 4 -38 15 -48 25 -18 18 -19 18
-63 -7z"/>
<path d="M1353 1763 c-12 -13 -33 -23 -45 -23 -21 0 -32 -25 -132 -300 -70
-192 -106 -304 -100 -310 6 -6 39 24 89 84 66 78 79 99 77 123 -5 47 46 75 78
43 33 -33 5 -95 -38 -83 -15 4 -69 -53 -156 -164 -45 -58 10 -36 249 100 138
78 263 148 278 156 15 8 27 19 26 25 -4 31 3 56 17 71 15 14 13 20 -25 69 -61
79 -146 149 -251 207 l-45 25 -22 -23z"/>
<path d="M1450 1243 c-135 -78 -260 -149 -277 -157 -33 -15 -41 -30 -23 -41 5
-3 36 -1 67 4 32 6 74 13 93 16 57 9 74 16 97 41 12 13 29 24 37 24 37 0 61
-61 34 -88 -16 -16 -48 -15 -67 2 -14 11 -34 10 -138 -7 -83 -14 -123 -25
-123 -34 0 -13 16 -19 95 -32 28 -5 159 -27 292 -51 l243 -42 17 21 c10 11 28
22 41 24 34 5 40 21 36 100 -5 98 -22 187 -50 265 -13 36 -24 66 -24 68 0 2
-10 3 -22 2 -41 -2 -56 2 -70 15 -11 11 -55 -11 -258 -130z"/>
<path d="M287 1369 c-11 -6 -31 -9 -47 -7 -24 4 -31 -1 -44 -29 -29 -60 -58
-196 -63 -299 l-6 -101 31 -6 c17 -3 40 -16 51 -28 16 -17 26 -20 53 -15 18 4
56 11 83 16 28 5 91 16 140 25 50 9 104 18 120 21 17 2 37 7 45 9 8 2 33 6 55
10 34 5 91 15 118 21 4 1 12 2 17 3 6 0 10 7 10 15 0 8 -17 16 -47 20 -59 8
-105 15 -160 26 -32 5 -46 4 -54 -6 -14 -17 -51 -18 -67 -2 -22 22 -14 64 13
76 30 14 49 8 68 -22 8 -12 24 -22 36 -23 12 -1 46 -7 74 -12 29 -6 67 -13 86
-16 19 -3 38 -8 42 -11 4 -2 12 4 18 14 8 16 -3 25 -92 76 -56 31 -109 61
-117 66 -65 40 -333 190 -338 190 -4 0 -15 -5 -25 -11z"/>
<path d="M970 1069 c-35 -13 -56 -63 -40 -97 6 -14 19 -31 28 -38 16 -11 17
-48 17 -411 0 -434 -4 -402 45 -394 3 1 5 177 5 393 l-1 391 28 29 c34 34 36
75 8 106 -12 12 -25 22 -30 22 -4 0 -14 2 -22 4 -7 3 -24 0 -38 -5z"/>
<path d="M550 909 c-146 -27 -276 -50 -289 -51 -15 -2 -32 -16 -47 -40 -14
-21 -31 -38 -39 -38 -11 0 -14 -7 -11 -22 8 -44 86 -218 98 -218 4 0 8 -5 8
-11 0 -11 45 -72 86 -116 20 -21 24 -22 49 -9 14 8 39 12 54 10 25 -4 37 6
122 108 51 62 96 115 99 118 3 3 51 60 108 127 128 153 128 173 -1 97 -51 -30
-99 -58 -107 -63 -8 -4 -16 -18 -18 -29 -7 -46 -61 -60 -89 -24 -18 22 -16 39
7 62 16 16 25 18 45 10 21 -8 40 -1 128 49 101 59 133 92 85 90 -13 -1 -142
-23 -288 -50z"/>
<path d="M1144 948 c-9 -14 -1 -20 109 -82 82 -47 101 -54 122 -46 20 8 29 6
45 -10 40 -40 12 -87 -48 -81 -7 0 -19 16 -27 34 -11 26 -35 46 -111 90 -53
31 -100 57 -105 57 -24 0 -12 -25 43 -91 154 -184 272 -324 278 -329 3 -3 19
-22 34 -42 24 -32 34 -38 65 -38 20 0 47 -7 59 -16 12 -8 22 -11 22 -7 0 5 15
24 33 44 60 64 122 171 157 270 l22 60 -31 28 c-17 16 -31 36 -31 45 0 9 -1
16 -2 16 -5 0 -342 59 -364 64 -12 2 -39 7 -60 10 -22 4 -66 11 -99 17 -33 5
-70 12 -82 14 -13 2 -26 -1 -29 -7z"/>
</g>
</svg>
