<?xml version="1.0" standalone="no"?>
<!DOCTYPE svg PUBLIC "-//W3C//DTD SVG 20010904//EN"
 "http://www.w3.org/TR/2001/REC-SVG-20010904/DTD/svg10.dtd">
<svg version="1.0" xmlns="http://www.w3.org/2000/svg"
 width="512.000000pt" height="512.000000pt" viewBox="0 0 512.000000 512.000000"
 preserveAspectRatio="xMidYMid meet">
<metadata>
Created by potrace 1.14, written by Peter Selinger 2001-2017
</metadata>
<g transform="translate(0.000000,512.000000) scale(0.100000,-0.100000)"
fill="#000000" stroke="none">
<path d="M1963 4482 l-43 -3 0 -80 0 -79 -80 0 -80 0 -1 -37 c0 -21 0 -57 1
-80 l2 -43 -81 0 -81 0 0 -80 0 -80 -37 1 c-21 1 -57 1 -80 0 l-43 -1 0 -80 0
-80 -80 0 -80 0 0 -80 0 -80 -80 0 -80 0 0 -79 0 -79 -162 1 -163 2 3 -242 c2
-221 4 -243 20 -244 9 0 45 0 80 1 l62 1 0 -80 0 -80 78 -3 77 -3 3 -77 3 -78
79 0 80 0 0 -160 0 -160 28 -1 c15 0 51 0 80 1 l52 1 0 -80 0 -81 79 0 79 0 1
-240 1 -240 -80 0 -80 0 0 -160 0 -159 -42 1 c-24 0 -60 0 -80 -1 l-38 -1 0
-181 c0 -141 -3 -179 -12 -173 -10 6 -10 4 0 -7 6 -7 12 -37 12 -66 l0 -53
-80 0 -80 0 0 -117 c0 -65 -1 -280 -1 -478 l0 -360 1441 -3 1440 -2 0 105 c0
58 0 215 0 350 0 135 0 304 0 375 l0 130 -80 0 -80 0 0 160 0 160 -81 0 -81 0
2 38 c1 20 2 128 1 240 l-1 202 -80 0 -80 0 0 240 0 240 80 0 80 0 1 38 c0 20
0 92 -1 160 l-1 122 80 0 81 0 0 480 0 480 -80 0 -80 0 0 80 0 80 -81 0 -80 0
1 68 c1 37 1 74 1 82 -1 12 -15 14 -81 12 l-80 -4 0 81 0 81 -80 0 -80 0 0 80
0 80 -81 0 -80 0 2 75 c1 42 0 78 -3 80 -3 3 -75 5 -161 6 l-157 0 0 80 0 79
-97 0 c-54 1 -215 2 -358 3 -143 1 -279 1 -302 -1z"/>
</g>
</svg>
